<svg xmlns="http://www.w3.org/2000/svg" xmlns:xlink="http://www.w3.org/1999/xlink" width="950" zoomAndPan="magnify" viewBox="0 0 712.5 809.999993" height="1080" preserveAspectRatio="xMidYMid meet" version="1.0"><defs><clipPath id="id1"><path d="M 545 674 L 706.820312 674 L 706.820312 803.414062 L 545 803.414062 Z M 545 674 " clip-rule="nonzero"/></clipPath><clipPath id="id2"><path d="M 585 754 L 706.820312 754 L 706.820312 803.414062 L 585 803.414062 Z M 585 754 " clip-rule="nonzero"/></clipPath></defs><path fill="#999999" d="M 212.730469 496.097656 C 211.34375 498.453125 206.667969 498.285156 202.292969 495.707031 L 67.335938 416.058594 C 62.960938 413.480469 60.550781 409.457031 61.949219 407.097656 L 62.570312 406.03125 C 63.972656 403.671875 68.652344 403.839844 73.019531 406.417969 L 207.980469 486.070312 C 212.355469 488.65625 214.75 492.652344 213.367188 495.011719 L 212.730469 496.097656 " fill-opacity="1" fill-rule="nonzero"/><path fill="#aedee4" d="M 209.738281 491.320312 C 210.480469 490.039062 177.511719 469.164062 140.015625 447.375 C 102.5 425.609375 67.195312 404.550781 66.910156 407.605469 C 66.777344 409.085938 99.796875 430.265625 137.300781 452.046875 C 174.808594 473.824219 208.976562 492.601562 209.738281 491.320312 " fill-opacity="1" fill-rule="nonzero"/><path fill="#666666" d="M 197.078125 492.117188 C 208.246094 478.804688 215.410156 460.425781 215.394531 441.875 C 215.394531 438.257812 215.132812 434.636719 214.566406 431.042969 C 208.824219 394.195312 177.023438 367.878906 140.859375 367.878906 C 137.035156 367.878906 133.160156 368.171875 129.253906 368.777344 C 102.476562 372.953125 81.273438 390.855469 71.660156 414.195312 L 71.660156 414.203125 L 66.535156 412.09375 C 76.847656 387.023438 99.640625 367.789062 128.394531 363.308594 C 132.585938 362.65625 136.75 362.332031 140.859375 362.332031 C 179.734375 362.332031 213.859375 390.605469 220.050781 430.183594 C 220.648438 434.074219 220.941406 437.984375 220.941406 441.875 C 220.929688 461.847656 213.324219 481.332031 201.328125 495.671875 L 197.078125 492.117188 " fill-opacity="1" fill-rule="nonzero"/><path fill="#cccccc" d="M 114.746094 608.074219 C 112.15625 612.449219 106.515625 613.898438 102.148438 611.320312 L 11.726562 557.957031 C 7.351562 555.378906 5.902344 549.738281 8.480469 545.371094 L 71.011719 421.425781 C 73.601562 417.054688 79.234375 415.601562 83.609375 418.179688 L 189.867188 480.890625 C 194.242188 483.46875 195.691406 489.109375 193.113281 493.480469 L 114.746094 608.074219 " fill-opacity="1" fill-rule="nonzero"/><path fill="#d9d9d9" d="M 72.316406 419.703125 C 72.464844 419.550781 72.617188 419.402344 72.773438 419.273438 C 72.617188 419.402344 72.464844 419.550781 72.316406 419.703125 " fill-opacity="1" fill-rule="nonzero"/><path fill="#828282" d="M 72.773438 419.273438 C 73.886719 418.269531 75.203125 417.566406 76.617188 417.199219 C 75.203125 417.566406 73.886719 418.269531 72.773438 419.273438 " fill-opacity="1" fill-rule="nonzero"/><path fill="#828282" d="M 79.535156 416.921875 C 79.335938 416.90625 79.140625 416.90625 78.941406 416.90625 C 79.140625 416.90625 79.335938 416.90625 79.535156 416.921875 " fill-opacity="1" fill-rule="nonzero"/><path fill="#aeaeae" d="M 190.511719 497.273438 L 68.941406 425.542969 L 71.011719 421.425781 C 71.386719 420.789062 71.828125 420.21875 72.316406 419.703125 C 72.464844 419.550781 72.617188 419.402344 72.773438 419.273438 C 73.886719 418.269531 75.203125 417.566406 76.617188 417.199219 C 77.375 417.007812 78.15625 416.90625 78.941406 416.90625 C 79.140625 416.90625 79.335938 416.90625 79.535156 416.921875 C 80.554688 416.996094 81.574219 417.230469 82.546875 417.644531 C 82.90625 417.800781 83.257812 417.976562 83.609375 418.179688 L 189.867188 480.890625 C 192.804688 482.625 194.425781 485.738281 194.386719 488.917969 C 194.378906 489.585938 194.300781 490.242188 194.144531 490.902344 C 193.941406 491.78125 193.597656 492.652344 193.113281 493.480469 L 190.511719 497.273438 " fill-opacity="1" fill-rule="nonzero"/><path fill="#b2b2b2" d="M 213.820312 493.90625 C 214.09375 490.902344 210.257812 487.8125 210.257812 487.8125 C 214.0625 493.992188 205.761719 489.839844 205.761719 489.839844 L 70.800781 410.199219 C 70.148438 409.808594 69.503906 409.472656 68.859375 409.171875 L 68.867188 409.171875 C 68.867188 409.171875 63.277344 404.316406 69.136719 404.859375 C 69.136719 404.859375 66.367188 403.695312 63.722656 405.003906 C 61.078125 406.308594 60.660156 408.761719 60.460938 409.691406 L 60.46875 409.699219 C 59.859375 411.492188 62.511719 414.761719 66.660156 417.207031 L 201.621094 496.859375 C 205.421875 499.097656 209.21875 499.917969 210.816406 498.960938 C 212.039062 498.636719 213.59375 496.390625 213.820312 493.90625 " fill-opacity="1" fill-rule="nonzero"/><path fill="#faa284" d="M 596.210938 212.707031 C 596.210938 212.707031 589.109375 207.742188 585.558594 201.75 C 584.214844 199.496094 584.253906 193.65625 585.242188 187.847656 L 587.015625 174.511719 C 587.015625 174.511719 587.746094 169.816406 591.507812 169.675781 C 594.929688 169.546875 595.273438 172.839844 595.273438 172.839844 C 595.273438 172.839844 596.761719 169.171875 599.84375 169.355469 C 603.105469 169.546875 604.074219 173.128906 604.074219 173.128906 C 604.074219 173.128906 605.171875 171.582031 608.367188 172.152344 C 610.984375 172.621094 612.015625 175.222656 612.015625 175.222656 C 612.015625 175.222656 613.804688 175.148438 615.242188 175.726562 C 617.519531 176.65625 618.949219 179.84375 618.949219 179.84375 C 618.949219 179.84375 621.449219 191.773438 618.0625 209.28125 C 618.0625 209.28125 610.25 228.226562 596.210938 212.707031 " fill-opacity="1" fill-rule="nonzero"/><path fill="#ef8d72" d="M 585.921875 188.257812 L 587.910156 175.113281 L 595.273438 172.839844 L 604.074219 173.128906 L 612.015625 175.222656 L 618.1875 179.976562 C 619.023438 182.355469 618.421875 190.933594 618.421875 190.933594 C 606.550781 193.050781 603.445312 201.800781 603.445312 201.800781 C 599.53125 190.953125 585.921875 188.257812 585.921875 188.257812 " fill-opacity="1" fill-rule="nonzero"/><path fill="#faa284" d="M 615.328125 189.898438 C 614.597656 191.261719 613.839844 191.78125 612.332031 191.445312 C 610.824219 191.117188 609.820312 190.148438 609.996094 188.355469 C 609.996094 188.355469 609.226562 191.5625 605.707031 191.058594 C 602.183594 190.558594 602.695312 187.9375 602.761719 187.320312 C 602.761719 187.320312 602.324219 190.652344 598.488281 190.339844 C 594.648438 190.023438 595.164062 186.726562 595.164062 186.726562 C 595.164062 186.726562 594.90625 189.167969 592.109375 189.46875 C 589.300781 189.769531 588.570312 187.042969 588.4375 185.519531 C 588.296875 183.996094 587.910156 175.113281 587.910156 175.113281 C 587.910156 175.113281 587.507812 174.65625 587.042969 174.359375 C 587.207031 173.558594 588.144531 169.800781 591.507812 169.675781 C 594.929688 169.546875 595.273438 172.839844 595.273438 172.839844 C 595.273438 172.839844 596.761719 169.171875 599.84375 169.355469 C 603.105469 169.546875 604.074219 173.128906 604.074219 173.128906 C 604.074219 173.128906 605.171875 171.582031 608.367188 172.152344 C 610.984375 172.621094 612.015625 175.222656 612.015625 175.222656 C 612.015625 175.222656 613.804688 175.148438 615.242188 175.726562 C 617.519531 176.65625 618.949219 179.84375 618.949219 179.84375 C 618.949219 179.84375 618.128906 180.671875 617.753906 182.355469 C 617.386719 184.039062 616.054688 188.53125 615.328125 189.898438 " fill-opacity="1" fill-rule="nonzero"/><path fill="#ef8d72" d="M 612.015625 175.222656 C 612.015625 175.222656 611.730469 181.226562 609.996094 188.355469 C 609.996094 188.355469 611.351562 177.492188 612.015625 175.222656 " fill-opacity="1" fill-rule="nonzero"/><path fill="#ef8d72" d="M 604.074219 173.128906 C 604.074219 173.128906 604.257812 181.089844 602.761719 187.320312 C 602.761719 187.320312 603.222656 176.761719 604.074219 173.128906 " fill-opacity="1" fill-rule="nonzero"/><path fill="#ef8d72" d="M 595.273438 172.839844 C 595.273438 172.839844 596.320312 179.652344 595.164062 186.726562 C 595.164062 186.726562 594.863281 177.03125 595.273438 172.839844 " fill-opacity="1" fill-rule="nonzero"/><path fill="#faa284" d="M 594.035156 193.664062 C 594.035156 193.664062 596.671875 201.222656 592.503906 202.953125 C 588.332031 204.679688 585.402344 201.472656 584.699219 198.492188 C 584.304688 194.960938 584.480469 190.140625 582.199219 185.101562 C 580.011719 180.28125 578.390625 179.417969 579.160156 178.773438 C 582.558594 175.984375 587.476562 175.558594 594.035156 193.664062 " fill-opacity="1" fill-rule="nonzero"/><path fill="#05334c" d="M 564.234375 326.421875 C 560.730469 322.855469 556.53125 317.078125 550.925781 307.804688 L 548.582031 303.929688 C 529.363281 272.136719 509.195312 238.855469 505.511719 225.203125 C 505.445312 225.003906 505.40625 224.808594 505.355469 224.609375 C 505.269531 224.265625 505.203125 223.933594 505.128906 223.621094 C 503.789062 217.417969 505.164062 210.875 509.167969 205.734375 C 511.320312 202.964844 514.179688 200.738281 517.402344 199.296875 C 526.128906 195.414062 536.074219 197.800781 542.183594 204.496094 C 542.515625 204.695312 542.84375 204.847656 543.179688 205.054688 C 565.632812 244.890625 605.40625 306.023438 590.898438 324.65625 L 590.875 324.703125 C 590.738281 324.898438 590.605469 325.097656 590.453125 325.296875 L 590.035156 325.867188 C 589.46875 326.589844 588.882812 327.191406 588.261719 327.757812 C 587.5 328.488281 586.730469 329.265625 585.753906 329.660156 L 585.285156 329.835938 C 585.167969 329.910156 584.039062 330.371094 582.347656 330.832031 C 582.113281 330.898438 581.886719 330.957031 581.660156 331.015625 C 581.484375 331.058594 581.308594 331.101562 581.117188 331.148438 C 580.65625 331.257812 580.191406 331.351562 579.746094 331.433594 C 579.546875 331.460938 579.359375 331.5 579.152344 331.527344 C 578.96875 331.558594 578.777344 331.59375 578.59375 331.617188 C 576.894531 331.851562 575.054688 331.929688 573.28125 331.683594 C 571.824219 331.476562 570.375 331.007812 568.820312 330.105469 C 567.121094 329.234375 565.582031 328.011719 564.234375 326.421875 " fill-opacity="1" fill-rule="nonzero"/><path fill="#05334c" d="M 591.097656 322.957031 C 588.640625 327.417969 584.261719 330.480469 579.3125 331.375 C 578.113281 331.628906 577.269531 331.683594 577.085938 331.710938 L 576.726562 331.644531 C 575.898438 331.660156 575.070312 331.644531 574.222656 331.535156 C 573.714844 331.46875 572.578125 331.308594 570.960938 330.765625 L 570.625 330.632812 C 567.28125 329.519531 564.957031 327.523438 563.339844 325.40625 C 561.84375 323.539062 560.753906 321.375 560.144531 319.0625 C 559.945312 318.402344 559.816406 317.882812 559.734375 317.621094 C 559.71875 317.328125 559.734375 316.980469 559.726562 316.675781 C 559.566406 315.222656 559.601562 313.746094 559.835938 312.265625 C 562.066406 278.617188 581.503906 218.464844 588.921875 207.257812 C 594.402344 208.078125 612.835938 213.996094 615.453125 214.714844 C 615.921875 226.375 613.46875 250.222656 601.464844 291.984375 C 599.074219 300.28125 597.355469 306.648438 595.949219 311.941406 C 594.695312 316.667969 592.972656 320.226562 591.097656 322.957031 " fill-opacity="1" fill-rule="nonzero"/><path fill="#75421c" d="M 406.792969 639.753906 C 406.984375 639.820312 407.167969 639.882812 407.351562 639.9375 C 425.046875 645.773438 444.191406 636.128906 450.03125 618.4375 L 450.070312 618.308594 L 522.445312 440.679688 L 524.011719 435.816406 L 523.675781 435.078125 C 527.03125 416.210938 516.382812 397.496094 497.78125 391.015625 C 497.457031 390.914062 497.148438 390.808594 496.847656 390.707031 C 486.804688 387.46875 476.097656 388.335938 466.695312 393.140625 C 457.292969 397.953125 450.332031 406.132812 447.09375 416.175781 C 446.925781 416.703125 446.792969 417.234375 446.65625 417.761719 L 446.574219 418.078125 L 386.855469 594.613281 C 386.453125 595.585938 386.113281 596.453125 385.84375 597.292969 C 380.105469 614.675781 389.507812 633.726562 406.792969 639.753906 " fill-opacity="1" fill-rule="nonzero"/><path fill="#643818" d="M 455.585938 604.75 L 407.351562 534.050781 L 446.539062 418.171875 C 447.730469 418.179688 448.925781 418.179688 450.136719 418.179688 C 484.480469 418.179688 513.277344 415.910156 521.191406 412.855469 C 523.199219 417.59375 524.277344 422.742188 524.289062 428.03125 C 524.296875 430.359375 524.09375 432.71875 523.675781 435.078125 L 524.011719 435.816406 L 522.445312 440.679688 L 455.585938 604.75 " fill-opacity="1" fill-rule="nonzero"/><path fill="#75421c" d="M 418.847656 574.304688 C 437.457031 575.191406 451.878906 591.046875 450.984375 609.648438 C 450.972656 609.847656 450.964844 610.046875 450.957031 610.234375 C 449.761719 628.503906 433.914062 642.652344 415.621094 641.773438 C 414.097656 641.699219 412.507812 641.496094 410.757812 641.152344 L 316.269531 631.433594 L 320.421875 567.644531 L 418.847656 574.304688 " fill-opacity="1" fill-rule="nonzero"/><path fill="#ffa01f" d="M 210.582031 566.40625 L 210.441406 569.257812 L 205.203125 677.671875 L 205.011719 681.5 L 208.589844 682.886719 C 217.808594 686.453125 225.230469 686.488281 230.652344 682.957031 C 235.773438 679.632812 238.589844 673.582031 239 664.992188 C 239.320312 658.355469 238.121094 651.742188 237.445312 648.671875 C 239.351562 644 241.554688 639.410156 244.023438 635.015625 C 244.546875 634.441406 245.023438 633.761719 245.460938 632.957031 C 247.628906 628.949219 253.71875 625.816406 258.789062 624.480469 C 264.96875 622.863281 273 623.894531 280.085938 624.804688 L 280.390625 624.847656 C 286.011719 625.574219 292.226562 626.582031 298.234375 627.558594 C 303.109375 628.347656 308.140625 629.167969 312.789062 629.820312 L 318.464844 630.621094 L 318.832031 624.898438 L 321.902344 577.652344 L 322.253906 572.171875 L 316.765625 571.996094 C 316.347656 571.980469 274.308594 570.625 257.882812 569.617188 C 253.199219 569.332031 249.175781 568.105469 245.277344 566.929688 C 242.53125 566.101562 239.929688 565.308594 237.292969 564.921875 C 221.617188 560.554688 214.347656 564.175781 213.035156 564.949219 L 210.582031 566.40625 " fill-opacity="1" fill-rule="nonzero"/><path fill="#b7b7b7" d="M 210.605469 566.027344 L 210.441406 569.257812 L 205.203125 677.671875 L 205.011719 681.5 L 208.589844 682.886719 C 211.886719 684.167969 214.964844 685.015625 217.484375 685.359375 L 223.238281 686.152344 L 223.515625 680.351562 L 228.9375 568.378906 L 229.207031 562.773438 L 223.609375 562.488281 C 217.753906 562.519531 213.96875 564.238281 213.550781 564.429688 L 210.605469 566.027344 " fill-opacity="1" fill-rule="nonzero"/><path fill="#e58613" d="M 313.769531 563.523438 C 311.308594 563.40625 309.226562 565.292969 309.109375 567.75 L 305.921875 633.621094 C 305.804688 636.074219 307.695312 638.15625 310.148438 638.28125 L 317.402344 638.625 C 319.859375 638.75 321.945312 636.859375 322.0625 634.40625 L 325.25 568.53125 C 325.367188 566.078125 323.476562 563.992188 321.023438 563.875 L 313.769531 563.523438 " fill-opacity="1" fill-rule="nonzero"/><path fill="#0a4469" d="M 378.230469 295.367188 C 376.894531 276.824219 365.449219 251.003906 357.296875 230.921875 C 349.800781 229.0625 344.230469 222.316406 344.230469 214.246094 C 344.230469 204.746094 357.125 198.351562 366.109375 195.296875 C 368.792969 194.390625 371.070312 193.746094 373 193.34375 C 395.851562 181.828125 431.765625 181.828125 431.765625 181.828125 L 479.175781 183.03125 C 479.175781 183.03125 504.449219 184.15625 533.75 197.808594 C 533.75 197.808594 532.828125 221.722656 532.570312 242.738281 C 532.417969 255.472656 521.71875 328.019531 522.035156 345.890625 C 520.804688 358.53125 522.238281 390.863281 523.609375 410.6875 C 523.625 410.960938 523.507812 411.195312 523.285156 411.433594 C 521.785156 415.179688 489.625 418.179688 450.136719 418.179688 C 411.101562 418.179688 379.191406 415.242188 377.050781 411.550781 L 376.933594 411.550781 L 376.933594 411.148438 C 376.765625 398.714844 380.964844 366.441406 380.546875 354.378906 C 379.863281 334.722656 379.628906 315.011719 378.230469 295.367188 " fill-opacity="1" fill-rule="nonzero"/><path fill="#95b2bf" d="M 485.117188 172.078125 C 485.117188 172.078125 430.921875 167.707031 418.414062 170.152344 C 413.804688 171.046875 430.535156 191.027344 430.535156 191.027344 L 493.148438 194.46875 L 485.117188 172.078125 " fill-opacity="1" fill-rule="nonzero"/><path fill="#75421c" d="M 364.050781 91.132812 C 366.34375 110.152344 412.816406 120.1875 467.839844 113.558594 C 522.871094 106.921875 565.617188 86.121094 563.324219 67.109375 C 561.023438 48.089844 514.558594 38.046875 459.53125 44.683594 C 404.507812 51.316406 361.757812 72.113281 364.050781 91.132812 " fill-opacity="1" fill-rule="nonzero"/><path fill="#e1e1e1" d="M 410.363281 183.34375 C 410.363281 183.335938 410.363281 183.335938 410.363281 183.335938 C 415.433594 182.707031 419.996094 182.339844 423.601562 182.128906 C 419.996094 182.339844 415.433594 182.714844 410.363281 183.34375 " fill-opacity="1" fill-rule="nonzero"/><path fill="#093c5d" d="M 468.804688 226.566406 L 444.074219 210.980469 L 436.15625 226.277344 L 433.523438 223.636719 C 421.910156 212.027344 413.320312 191.144531 410.363281 183.34375 C 415.433594 182.714844 419.996094 182.339844 423.601562 182.128906 C 426.980469 186.785156 430.535156 191.027344 430.535156 191.027344 L 493.148438 194.46875 L 489.476562 184.238281 C 493.105469 184.816406 497.558594 185.660156 502.609375 186.898438 C 500.460938 201.289062 494.363281 214.617188 494.363281 214.617188 L 482.53125 208.054688 L 468.804688 226.566406 " fill-opacity="1" fill-rule="nonzero"/><path fill="#849da9" d="M 493.148438 194.46875 L 430.535156 191.027344 C 430.535156 191.027344 426.980469 186.785156 423.601562 182.128906 C 428.621094 181.828125 431.765625 181.828125 431.765625 181.828125 L 479.175781 183.03125 C 479.175781 183.03125 483.027344 183.210938 489.476562 184.238281 L 493.148438 194.46875 " fill-opacity="1" fill-rule="nonzero"/><path fill="#ee8c72" d="M 440.820312 191.414062 L 473.171875 191.414062 L 473.171875 158.339844 L 440.820312 158.339844 L 440.820312 191.414062 " fill-opacity="1" fill-rule="nonzero"/><path fill="#dd725e" d="M 473.171875 162.851562 L 473.171875 172.144531 C 466.511719 174.136719 453.007812 177.703125 440.820312 177.933594 L 440.820312 162.851562 L 473.171875 162.851562 " fill-opacity="1" fill-rule="nonzero"/><path fill="#472004" d="M 500.269531 102.800781 C 500.269531 102.800781 505.398438 80.914062 501.671875 64.148438 L 485.917969 50.886719 L 500.269531 102.800781 " fill-opacity="1" fill-rule="nonzero"/><path fill="#ee8c72" d="M 493.007812 96.96875 C 493.007812 96.96875 508.535156 91.511719 508.535156 107.039062 C 508.535156 122.5625 493.007812 117.945312 493.007812 117.945312 L 493.007812 96.96875 " fill-opacity="1" fill-rule="nonzero"/><path fill="#f7a184" d="M 416.332031 96.96875 C 416.332031 96.96875 400.800781 91.511719 400.800781 107.039062 C 400.800781 122.5625 416.332031 117.945312 416.332031 117.945312 L 416.332031 96.96875 " fill-opacity="1" fill-rule="nonzero"/><path fill="#f7a184" d="M 414.851562 124.3125 C 414.851562 149.726562 434 170.328125 457.601562 170.328125 C 481.210938 170.328125 500.359375 149.726562 500.359375 124.3125 L 500.359375 83.492188 C 500.359375 58.078125 481.210938 37.476562 457.601562 37.476562 C 434 37.476562 414.851562 58.078125 414.851562 83.492188 L 414.851562 124.3125 " fill-opacity="1" fill-rule="nonzero"/><path fill="#ee8c72" d="M 414.851562 83.492188 C 414.851562 58.078125 434 37.476562 457.601562 37.476562 C 479.578125 37.476562 497.675781 55.324219 500.082031 78.292969 C 481.828125 78.578125 444.113281 80.871094 414.851562 93.894531 L 414.851562 83.492188 " fill-opacity="1" fill-rule="nonzero"/><path fill="#ee8c72" d="M 479.820312 60.738281 C 479.820312 60.738281 471.070312 62.613281 468.566406 64.488281 C 468.375 64.632812 462.210938 61.660156 461.597656 61.453125 C 458.78125 60.53125 456.035156 59.96875 453.066406 60.054688 C 448.941406 60.179688 444.941406 61.425781 440.902344 62.113281 C 431.949219 63.652344 422.648438 65.789062 416.085938 72.558594 C 420.640625 52.425781 437.503906 37.476562 457.601562 37.476562 C 476.347656 37.476562 492.261719 50.460938 498.027344 68.523438 C 493.675781 64.078125 486.628906 58.597656 479.820312 60.738281 " fill-opacity="1" fill-rule="nonzero"/><path fill="#ee8c72" d="M 420.222656 61.199219 C 417.675781 67.09375 416.207031 73.636719 416.207031 80.554688 L 416.207031 121.382812 C 416.207031 146.789062 435.347656 167.390625 458.964844 167.390625 C 475.058594 167.390625 489.050781 157.8125 496.359375 143.667969 C 489.558594 159.402344 474.785156 170.328125 457.601562 170.328125 C 434 170.328125 414.851562 149.726562 414.851562 124.3125 L 414.851562 83.492188 C 414.851562 75.398438 416.808594 67.8125 420.222656 61.199219 " fill-opacity="1" fill-rule="nonzero"/><path fill="#472004" d="M 418.746094 114.90625 C 418.746094 114.90625 414.082031 109.789062 412.214844 101.402344 C 410.363281 93.023438 399.640625 81.382812 401.035156 70.207031 C 401.035156 70.207031 395.910156 59.960938 408.5 50.644531 C 418.679688 43.109375 417.8125 34.816406 423.867188 29.226562 C 429.925781 23.640625 452.28125 12 474.175781 22.242188 C 474.175781 22.242188 483.5 27.359375 486.289062 32.949219 C 486.289062 32.949219 482.097656 18.980469 471.847656 15.722656 C 471.847656 15.722656 508.191406 18.511719 501.671875 66.949219 L 501.90625 78.359375 C 501.90625 78.359375 497.933594 45.054688 467.195312 56.703125 C 467.195312 56.703125 439.707031 47.855469 423.867188 65.082031 C 423.867188 65.082031 421.542969 70.207031 422.472656 82.777344 L 420.144531 79.054688 C 420.144531 79.054688 419.675781 94.421875 418.746094 114.90625 " fill-opacity="1" fill-rule="nonzero"/><path fill="#3d1a01" d="M 481.863281 111.140625 C 481.863281 114.394531 483.167969 117.023438 484.789062 117.023438 C 486.390625 117.023438 487.695312 114.394531 487.695312 111.140625 C 487.695312 107.890625 486.390625 105.253906 484.789062 105.253906 C 483.167969 105.253906 481.863281 107.890625 481.863281 111.140625 " fill-opacity="1" fill-rule="nonzero"/><path fill="#3d1a01" d="M 441.882812 111.140625 C 441.882812 114.394531 443.195312 117.023438 444.808594 117.023438 C 446.421875 117.023438 447.726562 114.394531 447.726562 111.140625 C 447.726562 107.890625 446.421875 105.253906 444.808594 105.253906 C 443.195312 105.253906 441.882812 107.890625 441.882812 111.140625 " fill-opacity="1" fill-rule="nonzero"/><path fill="#ee8c72" d="M 466.796875 117.933594 C 466.796875 117.933594 473.464844 117.691406 473.464844 123.386719 C 473.464844 129.085938 463.132812 127.613281 462.8125 123.386719 C 462.476562 119.15625 461.910156 87.902344 466.796875 117.933594 " fill-opacity="1" fill-rule="nonzero"/><path fill="#6d320a" d="M 439.804688 98.976562 C 441.644531 98.382812 443.546875 98.082031 445.453125 98.082031 C 447.359375 98.082031 449.257812 98.382812 451.09375 98.976562 C 451.777344 99.195312 452.507812 98.832031 452.730469 98.148438 C 452.949219 97.46875 452.582031 96.734375 451.894531 96.515625 C 449.804688 95.835938 447.628906 95.492188 445.453125 95.492188 C 443.285156 95.492188 441.109375 95.835938 439.003906 96.515625 C 438.324219 96.734375 437.957031 97.46875 438.175781 98.148438 C 438.359375 98.691406 438.859375 99.042969 439.40625 99.042969 L 439.804688 98.976562 " fill-opacity="1" fill-rule="nonzero"/><path fill="#6d320a" d="M 495.304688 98.148438 C 495.523438 97.46875 495.15625 96.734375 494.476562 96.515625 C 492.378906 95.835938 490.203125 95.492188 488.027344 95.492188 C 485.851562 95.492188 483.679688 95.835938 481.585938 96.515625 C 480.902344 96.734375 480.53125 97.46875 480.75 98.148438 C 480.96875 98.832031 481.710938 99.195312 482.382812 98.976562 C 484.222656 98.382812 486.128906 98.089844 488.027344 98.089844 C 489.933594 98.089844 491.835938 98.382812 493.667969 98.976562 L 494.070312 99.042969 C 494.621094 99.042969 495.128906 98.691406 495.304688 98.148438 " fill-opacity="1" fill-rule="nonzero"/><path fill="#ee8c72" d="M 422.101562 124.675781 C 422.101562 126.675781 426.554688 128.296875 432.042969 128.296875 C 437.523438 128.296875 441.972656 126.675781 441.972656 124.675781 C 441.972656 122.683594 437.523438 121.074219 432.042969 121.074219 C 426.554688 121.074219 422.101562 122.683594 422.101562 124.675781 " fill-opacity="1" fill-rule="nonzero"/><path fill="#ee8c72" d="M 482.382812 124.675781 C 482.382812 125.835938 484.964844 126.773438 488.144531 126.773438 C 491.316406 126.773438 493.886719 125.835938 493.886719 124.675781 C 493.886719 123.527344 491.316406 122.589844 488.144531 122.589844 C 484.964844 122.589844 482.382812 123.527344 482.382812 124.675781 " fill-opacity="1" fill-rule="nonzero"/><path fill="#d24646" d="M 459.308594 143.464844 C 459.296875 147.5 462.554688 150.78125 466.585938 150.796875 C 470.625 150.808594 473.914062 147.558594 473.929688 143.523438 L 473.9375 141.214844 C 473.941406 137.179688 470.683594 133.898438 466.652344 133.882812 C 462.613281 133.871094 459.332031 137.128906 459.316406 141.164062 L 459.308594 143.464844 " fill-opacity="1" fill-rule="nonzero"/><path fill="#75421c" d="M 373.050781 406.183594 L 374.941406 308.699219 C 390.882812 307.761719 389.007812 267.449219 389.007812 267.449219 L 525.007812 267.449219 L 525.457031 413.953125 C 526.152344 424.273438 525.523438 443.75 513.402344 458.390625 C 503.488281 470.359375 488.238281 476.421875 468.050781 476.421875 C 465.363281 476.421875 462.546875 476.3125 459.683594 476.101562 L 439.152344 476.101562 C 413.726562 476.101562 394.789062 473.675781 385.132812 461.90625 C 366.710938 444.070312 373.050781 406.183594 373.050781 406.183594 " fill-opacity="1" fill-rule="nonzero"/><path fill="#75421c" d="M 399.324219 184.011719 C 399.324219 184.011719 409.644531 220.105469 412.925781 252.917969 L 396.980469 252.917969 C 396.980469 252.917969 388.070312 202.292969 382.914062 187.761719 L 399.324219 184.011719 " fill-opacity="1" fill-rule="nonzero"/><path fill="#b7b7b7" d="M 402.140625 271.199219 L 410.574219 271.199219 C 413.6875 271.191406 416.203125 268.679688 416.207031 265.574219 L 416.207031 256.675781 C 416.203125 253.570312 413.6875 251.050781 410.574219 251.042969 L 402.140625 251.042969 C 399.03125 251.050781 396.519531 253.570312 396.511719 256.675781 L 396.511719 265.574219 C 396.519531 268.679688 399.03125 271.191406 402.140625 271.199219 Z M 391.824219 265.574219 L 391.824219 256.675781 C 391.824219 250.96875 396.445312 246.355469 402.140625 246.355469 L 410.574219 246.355469 C 416.28125 246.355469 420.898438 250.96875 420.898438 256.675781 L 420.898438 265.574219 C 420.898438 271.273438 416.273438 275.886719 410.574219 275.886719 L 402.140625 275.886719 C 396.445312 275.886719 391.824219 271.273438 391.824219 265.574219 " fill-opacity="1" fill-rule="nonzero"/><path fill="#75421c" d="M 514.691406 188.699219 L 500.621094 184.480469 C 500.621094 184.480469 500.152344 238.386719 498.746094 251.511719 L 512.816406 251.511719 C 512.816406 251.511719 517.035156 212.136719 514.691406 188.699219 " fill-opacity="1" fill-rule="nonzero"/><path fill="#b7b7b7" d="M 495.222656 265.003906 L 495.214844 265.324219 C 495.214844 268.285156 497.53125 270.773438 500.527344 270.941406 L 508.945312 271.425781 L 509.277344 271.433594 C 512.230469 271.433594 514.722656 269.117188 514.890625 266.121094 L 515.402344 257.246094 L 515.410156 256.917969 C 515.410156 253.957031 513.09375 251.46875 510.097656 251.296875 L 501.679688 250.824219 L 501.347656 250.808594 C 498.394531 250.808594 495.902344 253.121094 495.734375 256.117188 L 495.222656 265.003906 L 492.882812 264.871094 Z M 508.683594 276.105469 L 500.257812 275.621094 C 494.761719 275.300781 490.523438 270.757812 490.523438 265.324219 C 490.523438 265.125 490.53125 264.929688 490.539062 264.730469 L 491.054688 255.847656 C 491.367188 250.359375 495.910156 246.121094 501.347656 246.121094 C 501.554688 246.121094 501.75 246.128906 501.941406 246.140625 L 510.367188 246.617188 C 515.855469 246.941406 520.097656 251.480469 520.097656 256.917969 C 520.097656 257.105469 520.09375 257.296875 520.078125 257.507812 L 519.570312 266.394531 C 519.257812 271.886719 514.714844 276.121094 509.277344 276.121094 C 509.085938 276.121094 508.886719 276.121094 508.683594 276.105469 " fill-opacity="1" fill-rule="nonzero"/><path fill="#603314" d="M 505.414062 302.171875 L 505.414062 357 C 505.414062 360.855469 502.292969 363.980469 498.433594 363.980469 L 414.441406 363.980469 C 410.582031 363.980469 407.460938 360.855469 407.460938 357 L 407.460938 302.171875 L 505.414062 302.171875 " fill-opacity="1" fill-rule="nonzero"/><path fill="#75421c" d="M 401.949219 90.804688 C 418.605469 83.765625 440.433594 78.109375 464.628906 75.195312 C 483.558594 72.910156 501.464844 72.601562 516.917969 73.949219 C 516.917969 73.949219 521.652344 45.121094 499.070312 37.996094 C 476.472656 30.875 445.253906 37.871094 412.3125 51.121094 C 384.320312 62.371094 401.949219 90.804688 401.949219 90.804688 " fill-opacity="1" fill-rule="nonzero"/><path fill="#603314" d="M 401.289062 58.503906 C 404.992188 38.128906 418.613281 11.929688 454.328125 9.421875 C 488.890625 7 504.75 30.738281 510.691406 43.347656 C 495.5 42.105469 478.003906 42.457031 459.53125 44.683594 C 437.429688 47.347656 417.308594 52.300781 401.289062 58.503906 " fill-opacity="1" fill-rule="nonzero"/><path fill="#9b5729" d="M 505.445312 34.121094 C 507.699219 37.460938 509.421875 40.652344 510.691406 43.347656 C 495.5 42.105469 478.003906 42.457031 459.53125 44.683594 C 437.429688 47.347656 417.308594 52.300781 401.289062 58.503906 C 401.898438 55.140625 402.785156 51.632812 403.988281 48.089844 C 435.5625 30.21875 486.539062 32.515625 505.445312 34.121094 " fill-opacity="1" fill-rule="nonzero"/><path fill="#ee8c72" d="M 441.5625 201.5 C 441.5625 201.5 455.242188 213.609375 468.140625 222.199219 C 468.140625 222.199219 482.207031 204.234375 487.285156 192.117188 C 493.859375 176.453125 486.113281 182.164062 486.113281 182.164062 C 486.113281 182.164062 446.253906 176.304688 424.5625 179.820312 C 424.5625 179.820312 428.078125 199.742188 430.425781 202.085938 C 432.769531 204.429688 441.5625 201.5 441.5625 201.5 " fill-opacity="1" fill-rule="nonzero"/><path fill="#afcad8" d="M 468.140625 222.199219 C 468.140625 222.199219 457.390625 209.703125 443.320312 197.984375 L 440.976562 203.84375 C 440.976562 203.84375 459.148438 217.511719 468.140625 222.199219 " fill-opacity="1" fill-rule="nonzero"/><path fill="#afcad8" d="M 479.269531 198.175781 L 468.140625 222.199219 L 486.113281 199.15625 Z M 479.269531 198.175781 " fill-opacity="1" fill-rule="nonzero"/><path fill="#afcad8" d="M 427.105469 179.625 C 427.105469 179.625 434.921875 189 446.253906 199.933594 L 434.527344 219.664062 C 434.527344 219.664062 418.699219 199.15625 411.078125 182.742188 L 417.835938 170.460938 L 427.105469 179.625 " fill-opacity="1" fill-rule="nonzero"/><path fill="#afcad8" d="M 474.683594 204.714844 C 474.683594 204.714844 490.21875 206.773438 493.734375 211.460938 C 493.734375 211.460938 498.425781 196.804688 500.183594 186.257812 L 485.109375 172.074219 C 485.109375 172.074219 486.40625 189.480469 474.683594 204.714844 " fill-opacity="1" fill-rule="nonzero"/><path fill="#8aabba" d="M 446.253906 199.933594 L 446.441406 207.867188 L 443.027344 205.367188 Z M 446.253906 199.933594 " fill-opacity="1" fill-rule="nonzero"/><path fill="#8aabba" d="M 474.683594 204.714844 L 476.757812 211.148438 L 480.890625 205.851562 Z M 474.683594 204.714844 " fill-opacity="1" fill-rule="nonzero"/><g clip-path="url(#id1)"><path fill="#ffa01f" d="M 595.105469 803.316406 L 597.867188 802.578125 L 702.777344 774.5625 L 706.476562 773.574219 L 706.710938 769.75 C 707.3125 759.882812 705.078125 752.816406 700.074219 748.722656 C 695.339844 744.855469 688.722656 744.027344 680.40625 746.246094 C 673.980469 747.960938 668.050781 751.117188 665.324219 752.691406 C 660.289062 752.296875 655.25 751.59375 650.3125 750.582031 C 649.605469 750.261719 648.808594 750.019531 647.90625 749.851562 C 643.4375 749 638.59375 744.152344 635.78125 739.734375 C 632.351562 734.34375 593.046875 674.140625 593.046875 674.140625 L 545.402344 706.59375 C 545.402344 706.59375 572.976562 743.15625 583.152344 757.46875 C 585.871094 761.289062 584.378906 766.210938 584.4375 770.277344 C 584.480469 773.148438 585.132812 775.703125 585.558594 778.335938 C 586.171875 794.585938 591.828125 800.410156 592.972656 801.421875 L 595.105469 803.316406 " fill-opacity="1" fill-rule="nonzero"/></g><g clip-path="url(#id2)"><path fill="#b7b7b7" d="M 594.746094 803.414062 L 597.867188 802.578125 L 702.777344 774.5625 L 706.476562 773.574219 L 706.710938 769.75 C 706.929688 766.21875 706.804688 763.035156 706.367188 760.527344 L 705.363281 754.808594 L 699.757812 756.308594 L 591.398438 785.242188 L 585.972656 786.683594 L 587.410156 792.105469 C 589.21875 797.671875 592.011719 800.753906 592.320312 801.089844 L 594.746094 803.414062 " fill-opacity="1" fill-rule="nonzero"/></g><path fill="#75421c" d="M 535.085938 628.664062 C 549.492188 617.964844 553 597.859375 543.0625 582.886719 L 543.117188 582.96875 L 542.984375 582.761719 L 448.046875 416.101562 L 445.191406 411.078125 L 444.367188 411.640625 C 431.414062 397.261719 409.410156 394.222656 392.9375 405.3125 C 392.417969 405.65625 391.902344 406.023438 391.40625 406.390625 C 374.433594 419 370.398438 442.613281 382.203125 460.15625 C 382.515625 460.617188 382.847656 461.035156 383.167969 461.460938 L 383.382812 461.738281 L 485.285156 617.792969 C 485.792969 618.703125 486.269531 619.5 486.75 620.226562 C 497.0625 635.753906 518.070312 640.007812 533.589844 629.710938 C 534.101562 629.375 534.601562 629.023438 535.085938 628.664062 " fill-opacity="1" fill-rule="nonzero"/><path fill="#75421c" d="M 486.75 620.234375 C 476.824219 605.277344 480.324219 585.171875 494.730469 574.472656 C 495.214844 574.105469 495.71875 573.761719 496.226562 573.425781 C 503.746094 568.429688 512.765625 566.671875 521.617188 568.457031 C 530.453125 570.246094 538.082031 575.371094 543.0625 582.886719 C 543.898438 584.15625 544.675781 585.546875 545.429688 587.144531 L 593.039062 668.003906 L 541.53125 706.257812 L 486.75 620.234375 " fill-opacity="1" fill-rule="nonzero"/><path fill="#e58613" d="M 538.835938 711.648438 C 540.292969 713.625 543.078125 714.050781 545.058594 712.59375 L 598.210938 673.515625 C 600.183594 672.058594 600.613281 669.277344 599.15625 667.300781 L 594.847656 661.453125 C 593.390625 659.476562 590.613281 659.050781 588.628906 660.503906 L 535.480469 699.578125 C 533.496094 701.035156 533.078125 703.816406 534.527344 705.796875 L 538.835938 711.648438 " fill-opacity="1" fill-rule="nonzero"/><path fill="#0a4469" d="M 273.679688 289.65625 C 278.554688 288.558594 285.222656 285.980469 294.960938 281.226562 L 299.035156 279.246094 C 332.433594 262.953125 367.429688 245.921875 377.945312 236.460938 L 378.390625 236.042969 C 378.65625 235.800781 378.890625 235.558594 379.109375 235.332031 C 383.609375 230.847656 386.003906 224.601562 385.433594 218.121094 C 385.117188 214.625 383.929688 211.207031 382.003906 208.238281 C 376.777344 200.25 367.121094 196.863281 358.359375 199.179688 C 357.976562 199.164062 357.617188 199.113281 357.230469 199.105469 C 316.746094 220.398438 250.152344 250.191406 252.226562 273.71875 L 252.226562 273.761719 C 252.238281 274.011719 252.246094 274.246094 252.261719 274.496094 L 252.296875 275.203125 C 252.378906 276.113281 252.546875 276.941406 252.765625 277.753906 C 253.007812 278.777344 253.234375 279.839844 253.835938 280.710938 L 254.144531 281.117188 C 254.195312 281.238281 254.898438 282.234375 256.0625 283.539062 C 256.226562 283.722656 256.386719 283.890625 256.546875 284.066406 L 256.929688 284.46875 C 257.257812 284.8125 257.597656 285.144531 257.933594 285.457031 L 258.367188 285.855469 L 258.796875 286.234375 C 260.09375 287.347656 261.589844 288.417969 263.214844 289.171875 C 264.550781 289.789062 266.03125 290.175781 267.816406 290.261719 C 269.722656 290.453125 271.6875 290.261719 273.679688 289.65625 " fill-opacity="1" fill-rule="nonzero"/><path fill="#f7a184" d="M 198.988281 344.601562 C 206.917969 348.835938 204.726562 357.820312 204.726562 357.820312 C 204.726562 357.820312 207.128906 372.492188 204.652344 377.121094 C 201.472656 383.070312 200.695312 393.503906 200.695312 393.503906 C 200.695312 393.503906 192.226562 394.0625 194.910156 382.300781 C 194.910156 382.300781 187.601562 393.777344 183.785156 392.261719 C 183.785156 392.261719 181.703125 391.453125 180.253906 389.050781 C 180.253906 389.050781 174.960938 390.714844 173.394531 385.003906 C 173.394531 385.003906 168.113281 384.703125 167.933594 380.285156 C 167.933594 380.285156 164.160156 380.886719 164.242188 376.050781 C 164.324219 371.09375 164.359375 370.667969 167.246094 362.238281 C 167.246094 362.238281 176.253906 346.617188 185.59375 344.375 C 185.59375 344.375 191.0625 340.367188 198.988281 344.601562 " fill-opacity="1" fill-rule="nonzero"/><path fill="#0a4469" d="M 282.90625 279.820312 C 285.214844 275.277344 285.28125 269.9375 283.234375 265.355469 C 282.773438 264.203125 282.347656 263.484375 282.269531 263.316406 L 282.003906 263.0625 C 281.558594 262.367188 281.074219 261.683594 280.507812 261.046875 C 280.164062 260.667969 279.394531 259.816406 278.039062 258.785156 L 277.738281 258.578125 C 274.941406 256.449219 271.980469 255.648438 269.3125 255.503906 C 266.929688 255.3125 264.527344 255.628906 262.277344 256.433594 C 261.617188 256.628906 261.113281 256.8125 260.847656 256.894531 C 260.601562 257.054688 260.320312 257.253906 260.058594 257.421875 C 258.769531 258.109375 257.566406 258.96875 256.476562 259.992188 C 229.898438 280.757812 191.0625 330.648438 185.960938 343.078125 C 189.71875 347.152344 204.984375 359.066406 207.050781 360.816406 C 216.957031 354.652344 235.3125 339.210938 263.105469 305.804688 C 268.632812 299.164062 272.925781 294.160156 276.515625 290.023438 C 279.71875 286.332031 281.703125 282.910156 282.90625 279.820312 " fill-opacity="1" fill-rule="nonzero"/></svg>